<svg id="Ebene_1" data-name="Ebene 1" xmlns="http://www.w3.org/2000/svg" width="600" height="400" viewBox="0 0 600 400"><defs><style>.cls-1{fill:#231f20;}</style></defs><path id="path3139" class="cls-1" d="M116.57,127.78h0a12.75,12.75,0,0,0-9.16-3.85,12.58,12.58,0,0,0-9.11,3.85h-.06a13.37,13.37,0,0,0,0,18.59l.06.07a12.62,12.62,0,0,0,9.11,3.8,12.79,12.79,0,0,0,9.16-3.8l0-.07a13.37,13.37,0,0,0,0-18.59Zm-9.16,180.09h0a12.9,12.9,0,0,0,9.16-3.83l0-.07a13.06,13.06,0,0,0,3.76-9.26,13.22,13.22,0,0,0-3.76-9.32h0a12.64,12.64,0,0,0-9.16-3.86,12.48,12.48,0,0,0-9.11,3.86h-.06a13.27,13.27,0,0,0-3.76,9.32A13.11,13.11,0,0,0,98.24,304l.06.07a12.73,12.73,0,0,0,9.11,3.83ZM177.84,268h0a12.78,12.78,0,0,0,7.88-6.11l.23-.47h0a13.13,13.13,0,0,0,1-9.53,13,13,0,0,0-6-8l-.19-.12a12.86,12.86,0,0,0-17.48,4.95,13.29,13.29,0,0,0,4.72,18h0a12.8,12.8,0,0,0,9.82,1.28Zm-57.17-65.59h0a18.48,18.48,0,0,0-26.5,0,19.1,19.1,0,0,0-5.46,13.46,19.33,19.33,0,0,0,5.46,13.52,18.57,18.57,0,0,0,26.5,0,19.33,19.33,0,0,0,5.46-13.52,19.1,19.1,0,0,0-5.46-13.46ZM113.21,180h0a35.27,35.27,0,0,1,19.44,10.22h0a33.46,33.46,0,0,1,2.37,2.67l12.91-7.6a28.58,28.58,0,0,1,12.57-33.36l.22-.14a27.31,27.31,0,0,1,20.93-2.73,27.94,27.94,0,0,1,16.95,13.24v0a28.78,28.78,0,0,1,2.79,21.5,28.13,28.13,0,0,1-13,17.23l-1.76,1.06h-.18a27.58,27.58,0,0,1-32.74-6.64l-12.89,7.58a36.69,36.69,0,0,1,2.3,12.83,37.23,37.23,0,0,1-2.3,12.89l12.89,7.55a27.48,27.48,0,0,1,13.51-8.43,27.15,27.15,0,0,1,21.17,2.85l.43.21v0a28.31,28.31,0,0,1,12.57,17,28.78,28.78,0,0,1-2.79,21.49l-.24.47h0l0,0a28.14,28.14,0,0,1-16.67,12.83,27.65,27.65,0,0,1-21.17-2.84v0A28.57,28.57,0,0,1,148,246.51l-12.91-7.58a34.72,34.72,0,0,1-2.37,2.63l0,0a35.13,35.13,0,0,1-19.44,10.16v15.18a27.53,27.53,0,0,1,13.92,7.69h0l0,0a28.61,28.61,0,0,1,0,40l0,.08h0a27.53,27.53,0,0,1-39.42,0h0v-.08a28.61,28.61,0,0,1,0-40v0h0a27.59,27.59,0,0,1,13.91-7.69V251.76A35.07,35.07,0,0,1,82.2,241.6l0,0a36.68,36.68,0,0,1,0-51.34h0A35.22,35.22,0,0,1,101.62,180V164.88a28.15,28.15,0,0,1-13.91-7.71h0v0a28.66,28.66,0,0,1,0-40.08h0l0,0a27.51,27.51,0,0,1,39.42,0v0h0a28.66,28.66,0,0,1,0,40.08l0,0a28.09,28.09,0,0,1-13.92,7.71Zm72.51-10.08-.11-.17a13,13,0,0,0-7.77-6,12.74,12.74,0,0,0-9.84,1.31h0a13,13,0,0,0-6.05,8,13.37,13.37,0,0,0,1.31,10l.05.08a12.76,12.76,0,0,0,7.81,6,12.45,12.45,0,0,0,9.81-1.29l.16-.08a13.11,13.11,0,0,0,5.87-7.9,13.4,13.4,0,0,0-1.26-10h0"/><path id="path3141" class="cls-1" d="M243,174.35h14.4V219.1l20.77-23.38h17.27L270.36,222.8l25.18,34.34H279.05l-21.66-30.67v30.67H243V174.35"/><path id="path3143" class="cls-1" d="M312.17,226.69c0,7.62,5.38,18.69,18.35,18.69a17.06,17.06,0,0,0,16.05-9.83,21.34,21.34,0,0,0,2.32-8.61,19.51,19.51,0,0,0-1.66-8.64,17.69,17.69,0,0,0-16.81-10.83c-11.65,0-18.25,9.61-18.25,19.12Zm51,30.45H348.77V248.3C344.93,255.45,336.9,259,328.44,259c-19.36,0-30.68-15.34-30.68-32.66,0-19.35,13.75-32.55,30.68-32.55,11,0,17.69,5.93,20.33,10.86v-9h14.41v61.42"/><path id="path3145" class="cls-1" d="M379.49,207H372v-11.3h7.47v-3.46c0-18.25,13.63-19.35,24-19.48v11.29c-3.63,0-9.56,0-9.56,8.63v3h9.56V207H393.9v50.12H379.49V207"/><path id="path3147" class="cls-1" d="M413.26,174.35h14.4V219.1l20.77-23.38H465.7L440.63,222.8l25.17,34.34H449.31l-21.65-30.67v30.67h-14.4V174.35"/><path id="path3149" class="cls-1" d="M482.43,226.69c0,7.62,5.39,18.69,18.36,18.69a17.08,17.08,0,0,0,16.05-9.83,21.32,21.32,0,0,0,2.31-8.61,19.51,19.51,0,0,0-1.66-8.64,17.68,17.68,0,0,0-16.8-10.83c-11.65,0-18.26,9.61-18.26,19.12Zm51,30.45H519V248.3C515.19,255.45,507.17,259,498.7,259,479.35,259,468,243.69,468,226.37c0-19.35,13.74-32.55,30.66-32.55,11,0,17.7,5.93,20.34,10.86v-9h14.4v61.42"/></svg>